<svg xmlns="http://www.w3.org/2000/svg" viewBox="0 0 1280 360" width="1280" height="360" role="img" aria-label="Conclave MD — a virtual clinical committee, on your machine">
  <rect x="1" y="1" width="1278" height="358" rx="20" fill="#0a0d11" stroke="#1c2329" stroke-width="1"/>

  <g transform="translate(595,52) scale(1.3)">
    <path d="M43 20.5C39.9 17.4 35.8 15.5 31.4 15.5C22.5 15.5 15.5 22.8 15.5 32C15.5 41.2 22.5 48.5 31.4 48.5C35.8 48.5 39.9 46.6 43 43.5"
      fill="none" stroke="#f5f6f8" stroke-width="7.5" stroke-linecap="round" stroke-linejoin="round"/>
    <circle cx="43.5" cy="20.5" r="4.75" fill="#7dd3fc"/>
    <circle cx="43.5" cy="43.5" r="4.75" fill="#7dd3fc"/>
    <circle cx="32" cy="32" r="4.25" fill="#f5f6f8"/>
  </g>

  <text x="640" y="210" text-anchor="middle" font-family="'JetBrains Mono', ui-monospace, 'SF Mono', Menlo, monospace" font-size="62" font-weight="500" letter-spacing="-1.5" fill="#f5f6f8">Conclave<tspan dy="-20" font-size="28" fill="#7dd3fc">MD</tspan></text>

  <text x="640" y="258" text-anchor="middle" font-family="ui-sans-serif, system-ui, -apple-system, Segoe UI, Roboto, sans-serif" font-size="20" fill="#9aa0a6">A virtual clinical committee — on your machine.</text>

  <g font-family="'JetBrains Mono', ui-monospace, Menlo, monospace" font-size="13" letter-spacing="0.5">
    <g transform="translate(388,296)">
      <rect width="150" height="34" rx="17" fill="#12161b" stroke="#232a31"/>
      <circle cx="22" cy="17" r="3" fill="#7dd3fc"/>
      <text x="36" y="22" fill="#c7ccd1">Local-first</text>
    </g>
    <g transform="translate(554,296)">
      <rect width="166" height="34" rx="17" fill="#12161b" stroke="#232a31"/>
      <circle cx="22" cy="17" r="3" fill="#7dd3fc"/>
      <text x="36" y="22" fill="#c7ccd1">No telemetry</text>
    </g>
    <g transform="translate(736,296)">
      <rect width="226" height="34" rx="17" fill="#12161b" stroke="#232a31"/>
      <circle cx="22" cy="17" r="3" fill="#e2b340"/>
      <text x="36" y="22" fill="#c7ccd1">Not a medical device</text>
    </g>
  </g>
</svg>
